PathFileType	3	(X/Y/Z)	F:\ViconData\AntennenMessung\Messung1\Session1\ID06.trc
DataRate	CameraRate	NumFrames	NumMarkers	Units	OrigDataRate	OrigDataStartFrame	OrigNumFrames
120.0	120.0	6	70	mm	120.0	593	948	
Frame#	Time	Ashort			Along			Atop			A4			Bshort			Blong			Btop			B4			Cshort			Clong			Ctop			C4			Dshort			Dlong			Dtop			D4			Eshort			Elong			Etop			E4			Fshort			Flong			Ftop			F4			Gshort			Glong			Gtop			G4			Hshort			Hlong			Htop			H4			I1			I2			I3			I4			I5			WandAshort			WandAlong			WandAtop			WandA4			WandA15			WandBshort			WandB4			WandB5			WandBtop			WandBlong			WandCshort			WandClong			WandCtop			WandC4			WandC5			Acenter			Aantenna			Bcenter			Bantenna			Ccenter			Cantenna			Dcenter			Dantenna			Ecenter			Eantenna			Fcenter			Fantenna			Gcenter			Gantenna			Hcenter			Hantenna			Icenter			Iantenna			
		X1	Y1	Z1	X2	Y2	Z2	X3	Y3	Z3	X4	Y4	Z4	X5	Y5	Z5	X6	Y6	Z6	X7	Y7	Z7	X8	Y8	Z8	X9	Y9	Z9	X10	Y10	Z10	X11	Y11	Z11	X12	Y12	Z12	X13	Y13	Z13	X14	Y14	Z14	X15	Y15	Z15	X16	Y16	Z16	X17	Y17	Z17	X18	Y18	Z18	X19	Y19	Z19	X20	Y20	Z20	X21	Y21	Z21	X22	Y22	Z22	X23	Y23	Z23	X24	Y24	Z24	X25	Y25	Z25	X26	Y26	Z26	X27	Y27	Z27	X28	Y28	Z28	X29	Y29	Z29	X30	Y30	Z30	X31	Y31	Z31	X32	Y32	Z32	X33	Y33	Z33	X34	Y34	Z34	X35	Y35	Z35	X36	Y36	Z36	X37	Y37	Z37	X38	Y38	Z38	X39	Y39	Z39	X40	Y40	Z40	X41	Y41	Z41	X42	Y42	Z42	X43	Y43	Z43	X44	Y44	Z44	X45	Y45	Z45	X46	Y46	Z46	X47	Y47	Z47	X48	Y48	Z48	X49	Y49	Z49	X50	Y50	Z50	X51	Y51	Z51	X52	Y52	Z52	X53	Y53	Z53	X54	Y54	Z54	X55	Y55	Z55	X56	Y56	Z56	X57	Y57	Z57	X58	Y58	Z58	X59	Y59	Z59	X60	Y60	Z60	X61	Y61	Z61	X62	Y62	Z62	X63	Y63	Z63	X64	Y64	Z64	X65	Y65	Z65	X66	Y66	Z66	X67	Y67	Z67	X68	Y68	Z68	X69	Y69	Z69	X70	Y70	Z70	
593	4.9333333	-1038.254	214.5731	-1644.2207	-1109.3981	203.64171	-1599.5992	-1063.6732	173.10431	-1625.8132	-1054.2079	262.16251	-1634.9767	-1352.8892	235.49397	1004.0088	-1281.3755	227.11125	1052.4423	-1322.8768	194.12172	1020.902	-1284.6804	287.70175	1052.9618	813.91003	187.47081	1209.542	892.61792	178.33273	1179.2633	844.43469	145.37636	1198.2955	860.84558	292.47058	1167.344	1115.8523	209.83971	-1401.7865	1056.3217	194.02693	-1460.2267	1095.0724	162.32761	-1423.9258	1069.8792	238.65286	-1425.8969	-1204.4761	1685.9697	-1563.3203	-1129.1223	1688.2114	-1606.0706	-1173.0868	1724.4387	-1582.002	-1133.5109	1581.0619	-1603.6139	-1239.6718	1699.1497	1119.4221	-1309.1277	1698.3411	1071.7566	-1270.4597	1736.2515	1096.8816	-1244.9955	1593.7552	1106.5646	988.91132	1664.3105	1162.3737	957.52185	1700.218	1183.9252	922.8822	1661.9921	1215.0314	939.78247	1659.3892	1159.9736	999.25134	1668.4597	-1579.4698	1058.9692	1670.1106	-1518.6969	1025.1069	1708.0059	-1551.1614	1059.3551	1672.1927	-1585.6458	-232.48343	1722.7312	477.33554	-148.21735	1725.3838	477.55756	-195.58601	1761.0414	478.24997	-195.55771	1722.6078	509.08191	-195.67584	1725.8593	430.72211																																														-1068.8373	209.87393	-1625.0388	-1074.2601	248.48651	-1624.2257	-1321.4423	231.8078	1025.3066	-1319.9689	270.51648	1029.8306	848.12384	183.49854	1196.38	851.87573	222.26874	1194.4321	1088.7495	202.64055	-1428.3927	1082.7423	240.9407	-1432.6366	-1171.8678	1686.9397	-1581.8198	-1170.6008	1647.9607	-1581.6305	-1270.8218	1698.7869	1098.0447	-1271.1984	1659.8075	1099.2549	953.10846	1705.2664	1186.9551	972.82538	1733.4946	1168.6409	1026.6315	1669.2166	-1551.606	1028.1631	1630.2493	-1552.0525	-194.41568	1723.9296	477.43582	-193.18672	1684.9583	476.58093
594	4.9416667	-1038.2433	214.53143	-1644.2001	-1109.3666	203.64571	-1599.5872	-1063.5895	173.1319	-1625.8191	-1054.1825	262.16159	-1634.9714	-1352.796	235.52646	1003.9352	-1281.3444	227.17212	1052.3842	-1322.9039	194.17007	1020.8488	-1284.7279	287.75095	1053.0032	814.08618	187.44278	1209.5787	892.49994	178.16415	1179.3324	844.50403	145.23715	1198.4117	860.77948	292.46173	1167.4081	1115.8458	209.84319	-1401.787	1056.3511	194.12474	-1460.2767	1095.0538	162.24858	-1423.9147	1069.8605	238.68259	-1425.8998	-1204.4739	1685.9641	-1563.3068	-1129.1348	1688.3387	-1606.576	-1173.0892	1724.4412	-1582.0063	-1133.5004	1581.0579	-1603.6035	-1239.6838	1699.1364	1119.4142	-1309.1411	1698.3154	1071.7439	-1270.4708	1736.2505	1096.8734	-1245.0043	1593.6667	1106.5297	988.84784	1664.2394	1162.3672	957.49243	1700.3181	1183.8656	922.76837	1662.0594	1215.0325	939.77423	1659.3837	1160.0155	999.27222	1668.4646	-1579.4551	1058.9653	1670.0988	-1518.7021	1025.1072	1708.0044	-1551.1699	1059.3434	1672.1738	-1585.6361	-232.49989	1722.7344	477.33701	-148.20821	1725.3772	477.55612	-195.57291	1761.0096	478.25055	-195.5573	1722.613	509.06866	-195.67284	1725.853	430.71722																																														-1068.7413	209.86356	-1625.0697	-1074.1573	248.47763	-1624.282	-1321.4436	231.86063	1025.1942	-1319.9436	270.57532	1029.6577	848.245	183.40079	1196.4027	852.04449	222.16159	1194.3623	1088.777	202.69164	-1428.3984	1082.8313	241.00101	-1432.6459	-1171.9103	1686.9904	-1582.0088	-1170.6832	1648.0096	-1582.0116	-1270.8279	1698.7683	1098.0392	-1271.1992	1659.7888	1099.2516	953.17206	1705.2892	1186.8276	972.96545	1733.4327	1168.4658	1026.6243	1669.2134	-1551.6173	1028.1486	1630.2458	-1552.0667	-194.40817	1723.9286	477.436	-193.18407	1684.9572	476.5799
595	4.95	-1038.2529	214.50917	-1644.1791	-1109.3695	203.53255	-1599.5265	-1063.6102	172.55539	-1625.5397	-1054.1619	262.15744	-1634.947	-1352.7725	235.51549	1004.0181	-1281.4315	227.29736	1052.413	-1322.9719	194.08669	1020.8992	-1284.6252	287.74493	1052.9001	813.94031	187.41757	1209.5065	892.92078	177.42384	1180.2853	844.45154	145.32896	1198.3014	860.76691	292.43158	1167.3148	1115.7795	209.54935	-1401.6292	1056.3696	194.15768	-1460.2985	1095.1207	162.24748	-1423.9197	1069.863	238.74173	-1425.9667	-1204.4603	1685.9758	-1563.3145	-1129.1162	1688.2321	-1606.0532	-1173.0874	1724.453	-1582.0063	-1133.5229	1581.0841	-1603.6006	-1239.696	1699.1641	1119.4282	-1309.14	1698.3514	1071.7595	-1270.4828	1736.2744	1096.8903	-1244.9773	1593.8064	1106.3511	988.86261	1664.2648	1162.3408	957.49457	1700.3254	1183.8208	922.6391	1662.0226	1214.9449	939.79913	1659.3835	1159.9963	999.2561	1668.4807	-1579.4729	1058.8331	1669.9264	-1518.7302	1025.1036	1708.0076	-1551.1653	1059.3474	1672.1831	-1585.6034	-232.50941	1722.7543	477.34378	-148.22108	1725.3811	477.56485	-195.57948	1761.0171	478.23807	-195.63455	1722.6508	509.03619	-195.67685	1725.871	430.7261																																														-1068.9541	209.77052	-1624.9025	-1074.4967	248.369	-1624.2417	-1321.5365	231.91725	1025.2073	-1320.0673	270.63928	1029.6169	848.6203	183.02936	1196.6755	852.90283	221.75752	1195.0054	1088.8857	202.58183	-1428.1875	1082.9601	240.91504	-1432.2435	-1171.8533	1686.9521	-1581.8105	-1170.5707	1647.9738	-1581.6072	-1270.8402	1698.7994	1098.0498	-1271.212	1659.8199	1099.2559	953.14563	1705.3248	1186.7988	972.98047	1733.4795	1168.4987	1026.543	1669.1428	-1551.652	1027.9863	1630.1726	-1552.1401	-194.42188	1723.9412	477.44363	-193.20508	1684.9692	476.60861
596	4.9583333	-1038.2634	214.5255	-1644.1925	-1109.3281	203.66814	-1599.5492	-1063.7104	172.47192	-1625.5099	-1054.1479	262.18207	-1634.9757	-1352.8837	235.3372	1003.934	-1281.35	227.13252	1052.459	-1322.9254	194.18239	1020.8558	-1284.6523	287.71606	1052.9746	813.82648	187.57599	1209.5758	892.46246	178.22447	1179.2451	844.44397	145.27057	1198.3667	860.81494	292.47678	1167.3225	1115.777	209.55255	-1401.6674	1056.3354	194.07309	-1460.2529	1094.9705	162.19363	-1423.907	1069.8678	238.75259	-1426.0012	-1204.4537	1685.9656	-1563.3273	-1129.1538	1688.3837	-1606.5869	-1173.0856	1724.4393	-1582.0037	-1133.5098	1581.057	-1603.5861	-1239.6998	1699.1692	1119.4316	-1309.319	1698.6388	1071.8657	-1270.4863	1736.2726	1096.8816	-1244.9312	1593.8599	1106.2444	988.84045	1664.243	1162.3656	957.51648	1700.3542	1183.8096	922.94861	1662.0277	1215.0895	939.80353	1659.3856	1159.9836	999.24963	1668.5055	-1579.5094	1058.8394	1669.9443	-1518.7256	1025.1073	1708.0038	-1551.1669	1059.3535	1672.095	-1585.454	-232.33945	1722.5894	477.35519	-148.26494	1725.3647	477.57648	-195.63504	1761.0699	478.37	-195.62659	1722.6514	509.03195	-195.68127	1725.8732	430.7327																																														-1069.0173	209.82686	-1624.8726	-1074.502	248.43365	-1624.2141	-1321.5547	231.74387	1025.186	-1320.1418	270.46182	1029.6497	848.19873	183.48839	1196.318	852.00653	222.24641	1194.2406	1088.7771	202.52136	-1428.2783	1082.8906	240.85007	-1432.4331	-1171.8987	1687.0109	-1582.03	-1170.6626	1648.0305	-1582.0575	-1270.9984	1698.9307	1098.0474	-1271.5327	1659.9532	1099.2643	953.29944	1705.2156	1186.6963	973.04797	1733.3169	1168.2217	1026.5499	1669.1647	-1551.662	1027.9974	1630.1947	-1552.1587	-194.40363	1723.8416	477.45502	-193.1147	1684.8746	476.49731
597	4.9666667	-1038.2434	214.47719	-1644.2041	-1109.3451	203.67172	-1599.595	-1063.6572	172.44571	-1625.5616	-1054.167	262.20395	-1635.001	-1352.9216	235.24899	1004.0295	-1281.4139	227.11491	1052.4666	-1322.9669	194.14743	1020.861	-1284.6631	287.68237	1052.9502	813.94641	187.51382	1209.5554	892.51801	178.21573	1179.3071	844.51776	145.23489	1198.395	861.00824	292.36469	1167.4264	1115.8468	209.85191	-1401.811	1056.3163	194.05122	-1460.2627	1095.0645	162.19678	-1423.9153	1069.8772	238.6351	-1425.9066	-1204.4574	1685.9569	-1563.3125	-1129.1169	1688.2531	-1606.0745	-1173.0916	1724.4454	-1582.0074	-1133.4973	1581.0172	-1603.5493	-1239.7173	1699.1956	1119.4376	-1309.1788	1698.4409	1071.791	-1270.463	1736.2501	1096.8744	-1245.1115	1593.5912	1106.4728	988.87421	1664.2783	1162.3469	957.59015	1700.2916	1183.8633	922.80811	1662.0386	1215.0193	939.79102	1659.4076	1160.0031	999.25238	1668.4491	-1579.46	1058.8392	1669.9398	-1518.724	1025.1123	1707.9954	-1551.1704	1059.3464	1672.1451	-1585.5477	-232.49272	1722.7205	477.33871	-148.26373	1725.3553	477.57751	-195.63235	1761.0746	478.37302	-195.62772	1722.6548	509.04028	-195.67966	1725.8529	430.7265																																														-1068.9464	209.81117	-1624.941	-1074.4117	248.42101	-1624.2998	-1321.6454	231.6913	1025.215	-1320.2826	270.40799	1029.7047	848.25262	183.45406	1196.3481	852.04034	222.21413	1194.2725	1088.7473	202.65912	-1428.4192	1082.7673	240.96138	-1432.6829	-1171.8442	1686.9508	-1581.8231	-1170.5476	1647.9728	-1581.6316	-1270.8739	1698.8569	1098.0657	-1271.3025	1659.879	1099.3077	953.23932	1705.2999	1186.8557	973.04492	1733.4559	1168.5259	1026.5543	1669.1321	-1551.6312	1028.0006	1630.1616	-1552.0935	-194.46712	1723.91	477.4465	-193.24532	1684.9413	476.47504
598	4.975	-1038.2463	214.51718	-1644.1947	-1109.3317	203.7113	-1599.5597	-1063.7422	172.53647	-1625.4579	-1054.1569	262.15695	-1634.9664	-1352.7494	235.76451	1003.983	-1281.3326	227.1442	1052.4427	-1322.9518	194.16557	1020.9034	-1284.6538	287.7316	1052.9167	813.91376	187.51225	1209.6135	892.96271	178.90933	1178.6582	844.45795	145.36342	1198.3617	860.82367	292.46613	1167.3585	1115.8551	209.84317	-1401.8058	1056.3926	194.12914	-1460.261	1095.0265	162.24908	-1423.9102	1069.8594	238.70346	-1425.9493	-1204.4668	1685.9775	-1563.3186	-1129.1527	1688.3719	-1606.5933	-1173.0879	1724.4644	-1581.9946	-1133.541	1581.0581	-1603.5889	-1239.6888	1699.1543	1119.428	-1309.1676	1698.4214	1071.7844	-1270.479	1736.2689	1096.8845	-1244.9427	1593.9187	1106.3737	988.82684	1664.2328	1162.3552	957.45044	1700.3757	1183.8193	922.82306	1662.119	1215.0509	939.78571	1659.4133	1159.9795	999.24164	1668.502	-1579.4849	1058.9832	1670.1075	-1518.7026	1025.109	1708.0039	-1551.1663	1059.3513	1672.1562	-1585.5475	-232.33673	1722.6029	477.34869	-148.25854	1725.374	477.58475	-195.62326	1761.0784	478.39639	-195.61929	1722.6647	509.04184	-195.67273	1725.873	430.72675																																														-1069.0374	209.83655	-1624.8607	-1074.5182	248.44455	-1624.2428	-1321.3594	231.97562	1025.2825	-1319.7294	270.68277	1029.7656	847.84576	183.8194	1196.3258	851.26367	222.61502	1194.272	1088.7777	202.6875	-1428.4242	1082.8578	240.99762	-1432.701	-1171.9135	1687.0125	-1582.0232	-1170.6914	1648.0316	-1582.053	-1270.8771	1698.8251	1098.0411	-1271.2917	1659.8459	1099.2455	953.18396	1705.29	1186.7378	972.95386	1733.4015	1168.3015	1026.621	1669.2378	-1551.6283	1028.1407	1630.2701	-1552.0929	-194.39378	1723.8534	477.4552	-193.10678	1684.8871	476.47
